<svg width="257" height="84" viewBox="0 0 257 84" fill="none" xmlns="http://www.w3.org/2000/svg">
<path d="M12.4 22.5C8.2 22.5 5.06667 21.4667 3 19.4C1 17.3333 0 14.6333 0 11.3C0 8.03333 1 5.33333 3 3.2C5.06667 1.06667 8.2 0 12.4 0C16.4 0 19.4667 1.1 21.6 3.3C23.7333 5.43333 24.8 8.1 24.8 11.3C24.8 14.6333 23.7667 17.3333 21.7 19.4C19.6333 21.4667 16.5333 22.5 12.4 22.5ZM0.8 83C1.26667 72.2667 1.5 63.4 1.5 56.4C1.5 48.0667 1.23333 38.7333 0.7 28.4H24.7C24.1667 38.3333 23.9 47.6667 23.9 56.4C23.9 63.7333 24.1333 72.6 24.6 83H0.8Z" fill="black"/>
<path d="M91.1656 5.2C90.7656 17.6 90.5656 30.5667 90.5656 44.1C90.5656 57.5 90.7656 70.4667 91.1656 83H68.5656L68.8656 71C66.9323 75.4667 64.1323 78.7667 60.4656 80.9C56.799 82.9667 52.4656 84 47.4656 84C43.1323 84 39.2323 82.7667 35.7656 80.3C32.299 77.8333 29.599 74.5 27.6656 70.3C25.7323 66.0333 24.7656 61.3667 24.7656 56.3C24.7656 51.3 25.7323 46.6 27.6656 42.2C29.599 37.7333 32.299 34.1667 35.7656 31.5C39.299 28.7667 43.299 27.4 47.7656 27.4C52.9656 27.4 57.399 28.5 61.0656 30.7C64.799 32.8333 67.5656 36.1667 69.3656 40.7C69.3656 36.9 69.2323 30.8 68.9656 22.4C68.699 14.2667 68.5656 8.53333 68.5656 5.2H91.1656ZM57.9656 67.2C61.2323 67.2 63.899 66.3 65.9656 64.5C68.0323 62.6333 69.0656 59.7 69.0656 55.7C69.0656 52.1667 68.0323 49.5667 65.9656 47.9C63.899 46.2333 61.299 45.4 58.1656 45.4C55.1656 45.4 52.6323 46.3667 50.5656 48.3C48.5656 50.1667 47.5656 52.6333 47.5656 55.7C47.5656 59.1 48.499 61.8667 50.3656 64C52.2323 66.1333 54.7656 67.2 57.9656 67.2Z" fill="black"/>
<path d="M114.503 58C115.036 60.9333 116.336 63.3333 118.403 65.2C120.536 67 123.536 67.9 127.403 67.9C130.203 67.9 132.836 67.3667 135.303 66.3C137.77 65.1667 139.736 63.6 141.203 61.6C145.67 63.8 151.603 66.1667 159.003 68.7C156.936 73.3667 153.17 77.1 147.703 79.9C142.303 82.6333 135.236 84 126.503 84C115.17 84 106.77 81.4 101.303 76.2C95.9031 70.9333 93.2031 64.0333 93.2031 55.5C93.2031 47.1667 95.9031 40.4 101.303 35.2C106.703 30 115.103 27.4 126.503 27.4C133.303 27.4 139.203 28.5333 144.203 30.8C149.203 33.0667 153.036 36.2333 155.703 40.3C158.37 44.3 159.703 48.9 159.703 54.1C159.703 55.8333 159.636 57.1333 159.503 58H114.503ZM127.903 42.5C124.57 42.5 121.836 43.1333 119.703 44.4C117.57 45.6667 116.07 47.4 115.203 49.6H138.803C138.003 47.4667 136.703 45.7667 134.903 44.5C133.103 43.1667 130.77 42.5 127.903 42.5Z" fill="black"/>
<path d="M225.764 66.4C225.764 68.6667 226.031 70.2667 226.564 71.2C227.097 72.1333 228.164 72.8 229.764 73.2L229.364 82.6C227.231 82.9333 225.364 83.1667 223.764 83.3C222.231 83.4333 220.164 83.5 217.564 83.5C211.831 83.5 208.031 82.2333 206.164 79.7C204.297 77.1 203.364 73.8 203.364 69.8V67.3C201.431 72.7667 198.597 76.8333 194.864 79.5C191.197 82.1667 186.497 83.5 180.764 83.5C174.097 83.5 169.064 82.1667 165.664 79.5C162.331 76.8333 160.664 72.8667 160.664 67.6C160.664 63.2667 162.097 59.8667 164.964 57.4C167.831 54.9333 172.264 53.2333 178.264 52.3C173.197 48.7 168.131 45.5667 163.064 42.9C167.064 37.8333 171.631 34 176.764 31.4C181.897 28.7333 188.131 27.4 195.464 27.4C205.731 27.4 213.331 29.6333 218.264 34.1C223.264 38.5 225.764 45.3 225.764 54.5V66.4ZM197.564 45C194.164 45 191.164 45.5667 188.564 46.7C185.964 47.8333 183.631 49.5333 181.564 51.8C185.564 51.3333 190.564 51.1 196.564 51.1C199.031 51.1 200.764 50.8 201.764 50.2C202.764 49.6 203.264 48.8333 203.264 47.9C203.264 47.1 202.764 46.4333 201.764 45.9C200.764 45.3 199.364 45 197.564 45ZM187.064 67.2C190.797 67.2 194.164 66.5 197.164 65.1C200.164 63.6333 202.231 61.7333 203.364 59.4V56.8C201.764 57.6 199.997 58.2333 198.064 58.7C196.131 59.1 193.797 59.5 191.064 59.9L187.464 60.5C183.731 61.2333 181.864 62.5 181.864 64.3C181.864 66.2333 183.597 67.2 187.064 67.2Z" fill="black"/>
<path d="M256.285 43C256.218 47 256.185 53.1333 256.185 61.4C256.185 71.3333 256.252 78.5333 256.385 83H232.785L232.885 71.7C233.018 59.3 233.085 49.7333 233.085 43C233.085 36.6 233.018 27.5333 232.885 15.8L232.785 5H256.385C256.252 14.4667 256.185 22.2 256.185 28.2C256.185 34.8667 256.218 39.8 256.285 43Z" fill="black"/>
</svg>
